<svg width="24" height="24" viewBox="0 0 24 24" fill="none" xmlns="http://www.w3.org/2000/svg">
    <path d="M16.5 12.5029C16.7761 12.5029 16.9999 12.279 16.9999 12.0028C16.9999 11.7266 16.7761 11.5027 16.5 11.5027L16.5 12.5029ZM7.49996 12.0028L7.14646 11.6492C6.95124 11.8445 6.95124 12.1611 7.14647 12.3564L7.49996 12.0028ZM11.1842 16.3956C11.3794 16.5908 11.6959 16.5908 11.8912 16.3956C12.0864 16.2003 12.0864 15.8836 11.8912 15.6883L11.1842 16.3956ZM11.8912 8.31719C12.0864 8.1219 12.0864 7.80526 11.8912 7.60996C11.6959 7.41467 11.3794 7.41467 11.1842 7.60996L11.8912 8.31719ZM16.5 11.5027L7.49996 11.5027L7.49996 12.5029L16.5 12.5029L16.5 11.5027ZM11.8912 15.6883L7.85345 11.6492L7.14647 12.3564L11.1842 16.3956L11.8912 15.6883ZM7.85345 12.3564L11.8912 8.31719L11.1842 7.60996L7.14646 11.6492L7.85345 12.3564Z" fill="#FFFFFF"/>
</svg>