<svg width="24" height="24" viewBox="0 0 24 24" fill="none" xmlns="http://www.w3.org/2000/svg">
    <path d="M7.5 12.5029C7.22391 12.5029 7.00009 12.279 7.00009 12.0028C7.00009 11.7266 7.22391 11.5027 7.5 11.5027L7.5 12.5029ZM16.5 12.0028L16.8535 11.6492C17.0488 11.8445 17.0488 12.1611 16.8535 12.3564L16.5 12.0028ZM12.8158 16.3956C12.6206 16.5908 12.3041 16.5908 12.1088 16.3956C11.9136 16.2003 11.9136 15.8836 12.1088 15.6883L12.8158 16.3956ZM12.1088 8.31719C11.9136 8.1219 11.9136 7.80526 12.1088 7.60996C12.3041 7.41467 12.6206 7.41467 12.8158 7.60996L12.1088 8.31719ZM7.5 11.5027L16.5 11.5027L16.5 12.5029L7.5 12.5029L7.5 11.5027ZM12.1088 15.6883L16.1466 11.6492L16.8535 12.3564L12.8158 16.3956L12.1088 15.6883ZM16.1466 12.3564L12.1088 8.31719L12.8158 7.60996L16.8535 11.6492L16.1466 12.3564Z" fill="#FFFFFF"/>
</svg>