<svg xmlns="http://www.w3.org/2000/svg">
<symbol id="icon-photo" viewBox="0 0 32 32">
<path fill="none" stroke-linejoin="miter" stroke-linecap="butt" stroke-miterlimit="4" stroke-width="1.5769" d="M21.531 18.074c0 3.182-2.58 5.762-5.762 5.762s-5.762-2.58-5.762-5.762c0-3.182 2.58-5.762 5.762-5.762s5.762 2.58 5.762 5.762z"></path>
<path fill="none" stroke-linejoin="miter" stroke-linecap="butt" stroke-miterlimit="4" stroke-width="1.5769" d="M0.788 26.019v-14.043c0-2.36 1.913-4.273 4.273-4.273 1.619 0 3.098-0.914 3.822-2.362l0.968-1.937c0.801-1.603 2.439-2.615 4.231-2.615h3.371c1.792 0 3.43 1.012 4.231 2.615l0.968 1.937c0.724 1.448 2.203 2.362 3.822 2.362 2.36 0 4.273 1.913 4.273 4.273v14.043c0 2.613-2.118 4.731-4.731 4.731h-20.5c-2.613 0-4.731-2.118-4.731-4.731z"></path>
</symbol>
<symbol id="icon-delete" viewBox="0 0 32 32">
<path fill="none" stroke="currentColor" stroke-linejoin="round" stroke-linecap="round" stroke-miterlimit="4" stroke-width="0.6667" d="M16 21.846v-8.769M6.5 9.423h2.192M25.5 9.423h-2.192M19.654 9.423h-7.308M19.654 9.423v-1.462c0-0.807-0.654-1.462-1.462-1.462h-4.385c-0.807 0-1.462 0.654-1.462 1.462v1.462M19.654 9.423h3.654M12.346 9.423h-3.654M23.308 9.423v13.154c0 1.614-1.309 2.923-2.923 2.923h-8.769c-1.614 0-2.923-1.309-2.923-2.923v-13.154"></path>
</symbol>
</svg>